<svg xmlns="http://www.w3.org/2000/svg" xmlns:xlink="http://www.w3.org/1999/xlink" width="150" height="150" version="1.1" viewBox="0 0 150 150"><title>CSLogoDots</title><desc>Created with Sketch.</desc><g id="Page-1" fill="none" fill-rule="evenodd" stroke="none" stroke-width="1"><g id="Artboard-Copy-13"><g id="CSLogoDots"><g><circle id="Oval" cx="75" cy="75" r="75" fill="#FFF"/><path id="Oval" fill="#FFF" stroke="#384869" stroke-dasharray="0 9.02" stroke-linecap="round" stroke-width="4" d="M75.5244755,141.608392 C112.021615,141.608392 141.608392,112.021615 141.608392,75.5244755 C141.608392,39.0273365 112.021615,9.44055944 75.5244755,9.44055944 C39.0273365,9.44055944 9.44055944,39.0273365 9.44055944,75.5244755 C9.44055944,112.021615 39.0273365,141.608392 75.5244755,141.608392 Z"/><g id="logo"><g transform="translate(34.615385, 46.153846)"><path id="Fill-1" fill="#4CCEE4" d="M0,31.647307 L0,8.0457943 C0,5.33698754 0.0814889748,3.64742927 0.244466924,2.92330589 C0.407636163,2.19918252 0.733592062,1.50187153 1.5486731,0.938622503 C2.49976038,0.241311519 3.74944928,0 6.90131275,0 C9.56405109,0 11.0040722,0.375373473 11.7376643,1.01905968 C12.4984193,1.68955827 12.9332185,2.97693068 12.9332185,4.82755211 L12.9332185,9.81597857 L10.9769092,10.5937267 L10.9769092,4.77392733 C10.9769092,3.43293014 10.8139313,2.76243155 10.2976431,2.30643208 C9.80851801,1.85043262 8.911948,1.71637066 6.81982378,1.71637066 C4.12992246,1.71637066 3.45065638,1.93086979 2.88004226,2.33324447 C2.1464502,2.86968111 1.95630926,3.91555318 1.95630926,5.92704896 L1.95630926,33.4174913 C1.95630926,35.4289871 2.1464502,36.4748591 2.88004226,37.0112958 C3.45065638,37.4136705 4.67337358,37.6281696 6.81982378,37.6281696 C8.911948,37.6281696 9.80851801,37.4941076 10.2976431,37.0381082 C10.8139313,36.5821087 10.9769092,35.9116101 10.9769092,34.5706129 L10.9769092,28.3484389 L12.9332185,27.5706907 L12.9332185,34.5169881 C12.9332185,36.394422 12.4984193,37.654982 11.7376643,38.3254806 C11.0040722,38.9691668 9.56405109,39.3445403 6.90131275,39.3445403 C4.29290041,39.3445403 2.49976038,39.1032287 1.5486731,38.4327301 C0.733592062,37.8426687 0.407636163,37.1721701 0.244466924,36.4212344 C0.0814889748,35.7507358 0,34.1416147 0,31.647307"/><path id="Fill-3" fill="#4CCEE4" d="M23.2106918,15.0200739 L17.9632188,15.0200739 L17.9632188,1.72282283 L23.8997445,1.72282283 C25.1983653,1.72282283 26.0993768,1.9111944 26.4969861,2.39576793 C26.8414191,2.82633151 27.0800594,3.66073795 27.0800594,4.9528077 L27.0800594,12.1130118 C27.0800594,13.1896102 26.7619346,13.9163758 26.2850273,14.3471288 C25.7549437,14.8047922 24.6947765,15.0200739 23.2106918,15.0200739 M28.3786802,14.6431413 C28.7231132,14.1318471 28.9882483,13.2972511 28.9882483,12.139922 L28.9882483,4.4953339 C28.9882483,2.9339724 28.5376493,1.80355351 27.8485966,1.13060841 C27.1065542,0.37674313 25.7284489,0 23.8732496,0 L16.0550298,0 L16.0550298,36.661958 L17.9632188,35.881372 L17.9632188,16.7428968 L24.1117033,16.7428968 C25.8609231,16.7428968 26.7619346,17.7387646 26.7619346,19.7845101 L26.7619346,32.4088161 L28.6701235,31.6282301 L28.6701235,19.3268468 C28.6701235,17.2003706 27.7691121,16.0699517 25.9404077,15.9352111 L25.9404077,15.8813906 C27.1065542,15.693019 27.954576,15.2891762 28.3786802,14.6431413"/><path id="Fill-5" fill="#4CCEE4" d="M42.1986778,21.1363533 C42.1986778,22.9177286 42.0360044,23.9279295 41.3851196,24.4862822 C40.7884594,24.9914762 39.7849245,25.1243728 38.1306959,25.1243728 C36.4762763,25.1243728 35.4729324,24.9914762 34.8762721,24.4862822 C34.2253874,23.9279295 34.0627139,22.9177286 34.0627139,21.1363533 L34.0627139,5.68946959 C34.0627139,3.90828152 34.2253874,2.89789341 34.8762721,2.33954074 C35.4729324,1.83434669 36.4762763,1.70145014 38.1306959,1.70145014 C39.7849245,1.70145014 40.7884594,1.83434669 41.3851196,2.33954074 C42.0360044,2.89789341 42.1986778,3.90828152 42.1986778,5.68946959 L42.1986778,21.1363533 Z M42.9037871,1.08993885 C41.9004432,0.212634473 40.2460236,0 38.1306959,0 C36.0153682,0 34.3609486,0.212634473 33.3576047,1.08993885 C32.489822,1.80776738 32.1100597,3.00421065 32.1100597,4.97164106 L32.1100597,21.8541818 C32.1100597,23.8216123 32.489822,25.0180555 33.3576047,25.7358841 C34.3609486,26.6131884 36.0153682,26.8258229 38.1306959,26.8258229 C40.2460236,26.8258229 41.9004432,26.6131884 42.9037871,25.7358841 C43.7715698,25.0180555 44.1513321,23.8216123 44.1513321,21.8541818 L44.1513321,4.97164106 C44.1513321,3.00421065 43.7715698,1.80776738 42.9037871,1.08993885 L42.9037871,1.08993885 Z"/><polygon id="Fill-7" fill="#4CCEE4" points="51.608 22.802 45.935 0 47.969 0 52.866 19.992 57.682 0 60.706 0 65.255 15.534 69.376 0 71.356 0 66.807 16.804 63.89 17.939 59.234 1.783 54.364 21.694"/><path id="Fill-9" fill="#4CCEE4" d="M77.1845891,10.3846923 L74.6925126,10.3846923 L74.6925126,1.68692799 L77.1845891,1.68692799 C79.457457,1.68692799 80.1694513,2.60934786 80.1694513,6.03571737 C80.1694513,9.43573734 79.457457,10.3846923 77.1845891,10.3846923 M76.7463646,0 L72.6936074,0 L72.6936074,12.0716203 L76.7463646,12.0716203 C81.1554082,12.0716203 82.0590414,10.3846923 82.0590414,6.03571737 C82.0590414,1.66057844 81.1554082,0 76.7463646,0"/><polygon id="Fill-11" fill="#384869" points="17.839 40.096 19.623 39.345 19.623 58.57 17.839 58.57"/><path id="Fill-13" fill="#384869" d="M61.7917018,42.7677375 L64.6328171,26.0776833 L67.4473869,42.7677375 L61.7917018,42.7677375 Z M65.724921,21.4606583 L63.6171716,22.3126543 L57.0845506,58.5666907 L59.157716,58.5697133 L61.4997014,44.4851423 L67.7395743,44.4851423 L70.1699823,58.5697133 L72.2476343,58.5697133 L65.724921,21.4606583 Z"/><polygon id="Fill-15" fill="#384869" points="77.357 56.858 77.357 23.383 77.357 22.959 77.357 16.99 75.369 17.765 75.369 22.959 75.369 23.383 75.369 58.57 82.059 58.57 82.059 56.858"/><polygon id="Fill-18" fill="#384869" points="52.062 27.013 52.203 45.358 52.273 56.031 48.334 46.876 42.173 31.041 39.246 32.213 39.246 46.876 39.246 46.971 39.246 58.57 41.162 58.57 41.162 46.971 41.162 46.876 41.162 33.599 46.203 46.876 51.217 58.57 53.963 58.57 53.963 45.358 53.963 26.379"/><path id="Fill-20" fill="#384869" d="M10.4396427,51.1868094 L10.4396427,51.1862371 C9.94431751,51.1860463 9.44955393,51.1860463 8.95497754,51.1860463 L8.95497754,51.1858556 C6.59890698,51.1858556 6.51335762,51.1858556 6.42836985,51.1858556 C5.65318408,51.1858556 4.94950783,51.185474 4.19622419,51.185474 C2.42102817,51.1812771 1.75479147,51.0635714 1.75479147,49.1264837 C1.75479147,47.5919225 2.27351636,47.3063385 4.19622419,47.285926 C5.02120456,47.2855445 5.84655933,47.2849721 8.76572064,47.2847814 C9.31720514,47.2843998 9.87355677,47.2843998 10.4396427,47.2842091 L10.4396427,47.2842091 C12.355237,47.2895506 12.8558037,47.8065398 12.8558037,49.2890205 L12.8558037,49.505927 L14.4511027,48.855589 C14.294231,46.5659566 13.4933992,45.6378562 10.4396427,45.6058066 L10.4396427,45.6048528 C9.87655194,45.604662 9.32899859,45.6040897 8.76572064,45.6038989 L8.76572064,45.6038989 C6.59871978,45.6038989 6.51448081,45.6038989 6.42836985,45.6038989 C5.66497753,45.6038989 4.92479773,45.6044712 4.16982931,45.6048528 L4.16982931,45.6050436 C1.46669417,45.6279361 0,46.33665 0,49.5871954 C0,52.8354516 2.07096842,52.8663565 4.16982931,52.8659749 L8.67118579,52.8659749 L8.95497754,52.8659749 C9.44543558,52.8659749 9.89471012,52.8665472 10.3763699,52.866738 L10.3763699,52.866738 C12.1837639,52.8757042 12.962132,53.2187103 12.962132,55.2231402 C12.962132,56.8456467 12.5587209,57.3040692 10.3763699,57.3338295 L10.3763699,57.3338295 C9.80148565,57.334211 9.2378333,57.3347833 8.67118579,57.3351649 L8.67118579,57.3351649 C5.83326829,57.335928 5.02532291,57.3365003 4.16982931,57.336691 L4.16982931,57.3368818 C2.23252006,57.3357372 1.59529901,56.6850176 1.59529901,54.9251561 L1.59529901,54.7084403 L0,55.3587783 C0.157246088,57.9217854 1.09080114,58.9843793 4.16982931,59.0150935 L4.16982931,59.0156658 C4.92685691,59.0160473 5.65880001,59.0168104 6.42836985,59.0168104 C6.51429361,59.0168104 6.59871978,59.0168104 8.86044269,59.0168104 L8.86044269,59.0166196 C9.38946346,59.0164288 9.91024753,59.0160473 10.4396427,59.0158565 L10.4396427,59.0147119 C13.3822037,58.9803731 14.7171107,58.0083954 14.7171107,54.7626192 C14.7171107,51.5136 12.5441195,51.2003542 10.4396427,51.1868094"/><path id="Fill-23" fill="#384869" d="M35.2318711,40.7041336 L35.2318711,39.8696102 C35.2318711,37.3660398 33.8434736,36.661958 30.8048208,36.661958 C30.6956659,36.661958 30.5886028,36.6630939 30.4824905,36.6646085 C30.0382641,36.6653657 29.6006936,36.6668803 29.1650247,36.6683949 L29.1650247,36.6685842 C27.4407951,36.6685842 27.3940144,36.6687735 27.3489452,36.6689628 C24.7784797,36.7359822 23.1905987,37.3660398 23.1905987,40.4693766 L23.1905987,42.5149814 L23.1905987,49.2030962 L23.1905987,53.3361456 L23.1905987,53.5432619 L23.1905987,55.0491148 C23.1905987,57.2599962 24.1418059,58.4767571 27.3489452,58.5632765 C27.3942046,58.5632765 27.4406049,58.5634658 29.1650247,58.5636551 L29.1650247,58.5636551 C29.5997427,58.565359 30.0338903,58.5672522 30.4824905,58.5680095 C30.5374483,58.5685774 30.5914552,58.5697133 30.6477442,58.5697133 C33.6341015,58.5697133 35.2318711,57.9440101 35.2318711,54.9188625 L35.2318711,51.8872781 L35.2318711,51.6801618 L35.2318711,49.2030962 L35.2318711,49.1103293 L35.2318711,46.5374678 L30.5429631,46.5374678 L30.5429631,48.2065147 L33.3458107,48.2065147 L33.3458107,49.1103293 L33.3458107,49.2030962 L33.3458107,50.5024008 L33.3458107,51.6801618 L33.3458107,51.8872781 L33.3458107,54.7361685 C33.3458107,56.6138463 32.7958524,56.9008557 30.7000397,56.9008557 C30.624544,56.9008557 30.554373,56.8993412 30.4824905,56.8983946 C30.0591823,56.897448 29.6592645,56.8955548 29.2582057,56.8934723 L29.2582057,56.8930936 C27.4409853,56.8929043 27.3951554,56.892715 27.3489452,56.8925257 C25.7076277,56.8393267 25.076659,56.4171426 25.076659,54.3711592 L25.076659,53.5432619 L25.076659,53.3361456 L25.076659,50.5024008 L25.076659,49.2030962 L25.076659,42.5149814 L25.076659,40.8866383 C25.076659,38.8249413 25.4394945,38.3959417 27.3489452,38.3399029 C27.3953456,38.3397136 27.4409853,38.3395243 29.2582057,38.339335 L29.2582057,38.3389563 C29.658694,38.3370631 30.0538577,38.3351699 30.4824905,38.3342233 C30.5870814,38.3325194 30.6916724,38.3310049 30.8048208,38.3310049 C32.5861,38.3310049 33.5030775,38.4353203 33.5030775,39.9218626 L33.5030775,41.3559631 L35.2318711,40.7041336 Z"/></g></g></g></g></g></g></svg>